<svg id="svg" version="1.1" xmlns="http://www.w3.org/2000/svg" xmlns:xlink="http://www.w3.org/1999/xlink" width="400" height="400" viewBox="0, 0, 400,400"><g id="svgg"><path id="path0" d="M192.600 84.774 C 190.840 84.938,188.770 85.287,188.000 85.549 C 187.230 85.811,185.190 86.207,183.468 86.429 C 181.745 86.651,179.678 87.186,178.874 87.617 C 178.070 88.047,176.958 88.400,176.403 88.400 C 175.848 88.400,174.576 88.835,173.578 89.367 C 172.579 89.898,171.108 90.456,170.309 90.606 C 169.509 90.756,168.766 91.113,168.656 91.399 C 168.546 91.685,167.768 92.140,166.928 92.409 C 166.088 92.678,165.040 93.216,164.600 93.603 C 164.160 93.991,163.419 94.423,162.953 94.564 C 162.487 94.705,161.784 95.176,161.391 95.610 C 160.998 96.045,160.449 96.400,160.172 96.400 C 159.895 96.400,159.248 96.761,158.734 97.202 C 156.283 99.308,152.127 102.441,151.500 102.654 C 151.115 102.786,150.800 103.136,150.800 103.433 C 150.800 103.729,150.457 104.155,150.038 104.380 C 149.207 104.824,144.900 108.901,135.435 118.200 C 132.077 121.500,125.940 127.440,121.799 131.400 C 117.657 135.360,112.871 139.950,111.162 141.600 C 104.781 147.763,103.645 148.800,103.274 148.800 C 103.064 148.800,102.796 149.173,102.676 149.630 C 102.557 150.086,102.103 150.553,101.667 150.667 C 101.231 150.781,100.781 151.231,100.667 151.667 C 100.553 152.103,100.086 152.557,99.630 152.676 C 99.173 152.796,98.800 153.146,98.800 153.455 C 98.800 153.764,98.353 154.221,97.808 154.469 C 97.262 154.718,96.710 155.254,96.581 155.661 C 96.452 156.067,96.202 156.400,96.026 156.400 C 95.850 156.400,92.712 159.415,89.053 163.100 C 80.711 171.501,80.800 171.406,80.800 171.870 C 80.800 172.082,80.260 172.861,79.600 173.600 C 78.940 174.339,78.400 175.171,78.400 175.449 C 78.400 175.727,78.070 176.190,77.668 176.477 C 77.265 176.765,76.716 177.882,76.447 178.960 C 76.178 180.039,75.697 181.425,75.379 182.041 C 74.631 183.487,74.640 185.731,75.400 187.200 C 75.730 187.838,76.191 189.251,76.425 190.340 C 76.658 191.429,77.198 192.636,77.625 193.022 C 78.051 193.408,78.400 193.939,78.400 194.203 C 78.400 194.466,78.965 195.293,79.656 196.041 C 82.084 198.669,96.703 213.914,104.056 221.485 C 106.665 224.172,108.800 226.544,108.800 226.758 C 108.800 226.971,109.160 227.260,109.600 227.400 C 110.040 227.540,110.400 227.789,110.400 227.954 C 110.400 228.119,113.145 231.066,116.500 234.502 C 124.394 242.588,137.277 255.856,142.423 261.200 C 150.467 269.554,157.341 276.677,161.033 280.481 C 163.105 282.616,164.800 284.551,164.800 284.781 C 164.800 285.012,164.967 285.200,165.171 285.200 C 165.376 285.200,165.781 285.459,166.071 285.775 C 172.670 292.958,200.510 321.015,201.650 321.632 C 202.227 321.944,203.238 322.507,203.896 322.883 C 206.316 324.263,210.826 325.155,212.462 324.578 C 213.271 324.293,214.749 323.937,215.746 323.787 C 216.744 323.638,218.144 323.084,218.857 322.558 C 219.571 322.031,220.366 321.600,220.623 321.600 C 220.880 321.600,221.737 321.105,222.529 320.500 C 223.320 319.895,224.608 318.950,225.391 318.400 C 227.364 317.015,228.174 316.270,238.600 306.251 C 243.660 301.388,249.398 295.877,251.352 294.005 C 253.306 292.132,256.117 289.430,257.599 288.000 C 259.082 286.570,263.473 282.340,267.358 278.600 C 290.565 256.260,300.925 245.712,303.701 241.600 C 304.072 241.050,304.919 239.880,305.583 239.000 C 306.247 238.120,307.128 236.677,307.541 235.794 C 307.953 234.911,308.585 233.944,308.945 233.645 C 309.305 233.347,309.600 232.799,309.600 232.429 C 309.600 232.058,310.032 231.170,310.560 230.454 C 311.088 229.739,311.633 228.552,311.770 227.817 C 311.908 227.082,312.271 226.273,312.575 226.020 C 312.880 225.767,313.353 224.624,313.626 223.480 C 313.898 222.336,314.360 221.033,314.651 220.585 C 314.943 220.136,315.445 218.388,315.768 216.700 C 316.091 215.012,316.564 213.241,316.819 212.764 C 318.578 209.478,318.553 185.439,316.786 181.325 C 316.391 180.404,315.853 178.604,315.592 177.325 C 315.331 176.046,314.876 174.727,314.582 174.394 C 314.287 174.061,313.877 173.037,313.671 172.118 C 313.465 171.200,312.914 169.963,312.448 169.370 C 311.982 168.777,311.600 168.034,311.600 167.719 C 311.600 167.404,311.150 166.557,310.600 165.836 C 310.050 165.114,309.600 164.341,309.600 164.117 C 309.600 163.893,309.105 163.063,308.500 162.271 C 307.895 161.480,306.950 160.181,306.400 159.385 C 304.718 156.949,297.125 148.800,296.538 148.800 C 296.412 148.800,295.745 148.338,295.055 147.772 C 292.427 145.620,290.673 144.400,290.207 144.400 C 289.941 144.400,289.407 144.050,289.021 143.623 C 288.634 143.195,287.804 142.733,287.177 142.595 C 286.550 142.457,285.618 142.014,285.105 141.611 C 284.592 141.207,283.458 140.684,282.586 140.448 C 281.714 140.213,280.640 139.767,280.200 139.458 C 279.760 139.149,278.320 138.679,277.000 138.412 C 275.680 138.145,274.219 137.685,273.754 137.389 C 273.288 137.094,271.758 136.740,270.354 136.604 C 257.065 135.313,256.283 134.911,255.659 129.065 C 255.429 126.901,255.055 124.908,254.830 124.636 C 254.604 124.364,254.129 123.008,253.774 121.622 C 253.419 120.236,252.785 118.539,252.366 117.851 C 251.946 117.163,251.602 116.273,251.601 115.873 C 251.601 115.474,251.150 114.557,250.600 113.836 C 250.050 113.114,249.600 112.249,249.600 111.911 C 249.600 111.574,249.317 111.063,248.971 110.776 C 248.625 110.489,247.994 109.611,247.569 108.827 C 246.576 106.993,245.189 105.149,244.300 104.481 C 243.915 104.191,243.600 103.796,243.600 103.602 C 243.600 102.968,237.639 97.412,235.015 95.600 C 234.219 95.050,232.920 94.105,232.129 93.500 C 231.337 92.895,230.473 92.400,230.207 92.400 C 229.941 92.400,229.407 92.050,229.021 91.623 C 228.634 91.195,227.804 90.733,227.177 90.595 C 226.550 90.457,225.624 90.026,225.119 89.636 C 224.613 89.246,223.300 88.707,222.200 88.437 C 221.100 88.168,219.796 87.686,219.301 87.366 C 218.807 87.045,216.917 86.586,215.101 86.344 C 213.286 86.102,211.316 85.657,210.724 85.354 C 209.436 84.696,197.535 84.315,192.600 84.774 M198.041 139.004 C 199.515 140.005,202.225 142.584,205.523 146.127 C 206.188 146.840,207.110 148.423,208.013 150.400 C 208.599 151.682,208.297 155.001,207.512 155.904 C 207.180 156.287,206.792 157.087,206.650 157.683 C 206.509 158.279,205.990 159.235,205.497 159.807 C 205.003 160.380,204.150 161.390,203.600 162.051 C 203.050 162.713,200.845 165.055,198.700 167.255 C 196.555 169.456,194.800 171.396,194.800 171.566 C 194.800 171.737,194.421 172.219,193.957 172.638 C 193.494 173.057,192.770 174.075,192.349 174.900 C 191.928 175.725,191.431 176.400,191.244 176.400 C 191.057 176.400,190.678 177.207,190.402 178.192 C 190.126 179.178,189.653 180.190,189.350 180.441 C 188.714 180.970,188.555 187.401,189.168 187.781 C 189.371 187.906,189.857 188.846,190.248 189.869 C 190.638 190.892,191.373 192.177,191.879 192.723 C 192.386 193.270,192.800 193.895,192.800 194.113 C 192.800 194.330,193.205 194.916,193.700 195.415 C 194.195 195.914,195.284 197.015,196.120 197.861 C 198.340 200.107,198.997 200.662,200.753 201.770 C 201.622 202.319,202.449 202.955,202.590 203.184 C 202.731 203.413,203.159 203.600,203.539 203.600 C 203.920 203.600,204.937 203.960,205.800 204.400 C 209.940 206.511,217.576 203.449,224.874 196.752 C 225.685 196.009,227.274 194.590,228.407 193.600 C 229.539 192.610,230.967 191.350,231.579 190.800 C 234.007 188.620,238.368 185.600,239.087 185.600 C 239.310 185.600,239.989 185.209,240.597 184.731 C 244.600 181.582,251.825 184.064,258.381 190.840 C 261.842 194.418,261.910 194.501,262.487 195.820 C 262.771 196.469,263.362 197.532,263.801 198.182 C 264.498 199.214,264.600 200.029,264.600 204.582 L 264.600 209.800 263.212 212.200 C 261.586 215.014,261.746 214.789,259.367 217.600 C 257.353 219.981,256.345 220.977,245.233 231.574 C 241.182 235.438,237.407 239.095,236.844 239.700 C 236.282 240.305,235.613 240.800,235.358 240.800 C 235.102 240.800,234.796 241.173,234.676 241.630 C 234.557 242.086,234.103 242.553,233.667 242.667 C 233.231 242.781,232.781 243.231,232.667 243.667 C 232.553 244.103,232.086 244.557,231.630 244.676 C 231.173 244.796,230.800 245.146,230.800 245.455 C 230.800 245.764,230.353 246.221,229.808 246.469 C 229.262 246.718,228.710 247.254,228.581 247.661 C 228.452 248.067,228.212 248.400,228.047 248.400 C 227.883 248.400,225.825 250.286,223.476 252.590 C 217.607 258.347,219.212 259.059,205.325 244.531 C 199.854 238.808,189.102 227.640,186.100 224.563 C 184.505 222.928,183.200 221.412,183.200 221.195 C 183.200 220.978,182.936 220.800,182.614 220.800 C 182.292 220.800,181.858 220.483,181.651 220.095 C 181.444 219.708,178.647 216.733,175.437 213.485 C 172.227 210.237,169.600 207.522,169.600 207.452 C 169.600 207.382,166.495 204.166,162.700 200.304 C 146.158 183.472,143.600 180.691,143.600 179.543 C 143.600 178.972,145.447 176.883,149.171 173.244 C 159.437 163.211,173.373 149.781,176.200 147.198 C 177.740 145.790,179.090 144.539,179.200 144.417 C 179.481 144.106,182.361 141.959,183.798 140.990 C 184.937 140.222,188.704 138.309,190.000 137.840 C 191.834 137.176,196.302 137.823,198.041 139.004 " stroke="none" fill="#fafafc" fill-rule="evenodd"></path><path id="path1" d="M55.200 20.200 C 55.200 21.178,55.133 21.200,52.200 21.200 C 49.267 21.200,49.200 21.222,49.200 22.200 C 49.200 23.133,49.067 23.200,47.200 23.200 C 45.333 23.200,45.200 23.267,45.200 24.200 C 45.200 25.133,45.067 25.200,43.200 25.200 C 41.333 25.200,41.200 25.267,41.200 26.200 C 41.200 27.005,41.001 27.200,40.182 27.200 C 39.622 27.200,38.714 27.650,38.164 28.200 C 37.614 28.750,36.722 29.200,36.182 29.200 C 35.401 29.200,35.200 29.405,35.200 30.200 C 35.200 31.000,35.000 31.200,34.200 31.200 C 33.400 31.200,33.200 31.400,33.200 32.200 C 33.200 33.000,33.000 33.200,32.200 33.200 C 31.400 33.200,31.200 33.400,31.200 34.200 C 31.200 35.000,31.000 35.200,30.200 35.200 C 29.405 35.200,29.200 35.401,29.200 36.182 C 29.200 36.722,28.750 37.614,28.200 38.164 C 27.650 38.714,27.200 39.622,27.200 40.182 C 27.200 41.001,27.005 41.200,26.200 41.200 C 25.267 41.200,25.200 41.333,25.200 43.200 C 25.200 45.067,25.133 45.200,24.200 45.200 C 23.267 45.200,23.200 45.333,23.200 47.200 C 23.200 49.067,23.133 49.200,22.200 49.200 C 21.246 49.200,21.200 49.309,21.200 51.571 C 21.200 53.624,21.066 54.048,20.200 54.729 L 19.200 55.515 19.200 200.176 L 19.200 344.836 20.200 345.836 C 20.974 346.611,21.200 347.248,21.200 348.661 C 21.200 350.130,21.394 350.638,22.200 351.271 C 22.967 351.875,23.200 352.428,23.200 353.648 C 23.200 354.830,23.456 355.476,24.200 356.165 C 24.750 356.675,25.200 357.476,25.200 357.946 C 25.200 358.585,25.446 358.800,26.177 358.800 C 27.040 358.800,27.168 358.998,27.277 360.500 C 27.372 361.813,27.605 362.290,28.300 362.595 C 28.852 362.837,29.200 363.340,29.200 363.895 C 29.200 364.594,29.428 364.800,30.200 364.800 C 31.000 364.800,31.200 365.000,31.200 365.800 C 31.200 366.600,31.400 366.800,32.200 366.800 C 33.000 366.800,33.200 367.000,33.200 367.800 C 33.200 368.600,33.400 368.800,34.200 368.800 C 35.000 368.800,35.200 369.000,35.200 369.800 C 35.200 370.572,35.406 370.800,36.105 370.800 C 36.660 370.800,37.163 371.148,37.405 371.700 C 37.710 372.395,38.187 372.628,39.500 372.723 C 41.002 372.832,41.200 372.960,41.200 373.823 C 41.200 374.554,41.415 374.800,42.054 374.800 C 42.524 374.800,43.325 375.250,43.835 375.800 C 44.427 376.439,45.196 376.800,45.963 376.800 C 46.710 376.800,47.541 377.177,48.164 377.800 C 48.953 378.589,49.569 378.800,51.087 378.800 C 52.698 378.800,53.074 378.946,53.405 379.700 L 53.800 380.600 200.200 380.600 L 346.600 380.600 346.728 379.700 C 346.843 378.892,347.079 378.800,349.047 378.800 C 350.854 378.800,351.396 378.630,352.140 377.827 C 352.780 377.136,353.558 376.817,354.821 376.727 C 356.315 376.620,356.620 376.456,356.728 375.700 C 356.820 375.049,357.124 374.800,357.828 374.800 C 358.592 374.800,358.800 374.591,358.800 373.822 C 358.800 372.939,358.985 372.832,360.700 372.722 C 362.321 372.618,362.619 372.468,362.728 371.700 C 362.820 371.049,363.124 370.800,363.828 370.800 C 364.598 370.800,364.800 370.592,364.800 369.800 C 364.800 369.000,365.000 368.800,365.800 368.800 C 366.600 368.800,366.800 368.600,366.800 367.800 C 366.800 367.000,367.000 366.800,367.800 366.800 C 368.600 366.800,368.800 366.600,368.800 365.800 C 368.800 365.000,369.000 364.800,369.800 364.800 C 370.592 364.800,370.800 364.598,370.800 363.828 C 370.800 363.124,371.049 362.820,371.700 362.728 C 372.468 362.619,372.618 362.321,372.722 360.700 C 372.832 358.985,372.939 358.800,373.822 358.800 C 374.571 358.800,374.800 358.588,374.800 357.895 C 374.800 357.340,375.148 356.837,375.700 356.595 C 376.374 356.299,376.632 355.804,376.729 354.619 C 376.814 353.575,377.188 352.732,377.829 352.138 C 378.622 351.403,378.800 350.849,378.800 349.114 C 378.800 347.295,378.929 346.933,379.700 346.595 L 380.600 346.200 380.701 200.481 L 380.801 54.763 379.801 53.836 C 379.036 53.127,378.800 52.508,378.800 51.212 C 378.800 49.878,378.586 49.347,377.800 48.729 C 377.033 48.125,376.800 47.572,376.800 46.352 C 376.800 45.170,376.544 44.524,375.800 43.835 C 375.250 43.325,374.800 42.524,374.800 42.054 C 374.800 41.410,374.554 41.200,373.800 41.200 C 372.928 41.200,372.800 41.025,372.800 39.829 C 372.800 38.527,371.978 37.200,371.171 37.200 C 370.967 37.200,370.800 36.750,370.800 36.200 C 370.800 35.400,370.600 35.200,369.800 35.200 C 369.000 35.200,368.800 35.000,368.800 34.200 C 368.800 33.400,368.600 33.200,367.800 33.200 C 367.000 33.200,366.800 33.000,366.800 32.200 C 366.800 31.400,366.600 31.200,365.800 31.200 C 365.000 31.200,364.800 31.000,364.800 30.200 C 364.800 29.446,364.590 29.200,363.946 29.200 C 363.476 29.200,362.675 28.750,362.165 28.200 C 361.567 27.555,360.806 27.200,360.019 27.200 C 358.985 27.200,358.800 27.048,358.800 26.200 C 358.800 25.328,358.625 25.200,357.429 25.200 C 356.443 25.200,355.837 24.919,355.271 24.200 C 354.636 23.392,354.131 23.200,352.642 23.200 C 350.944 23.200,350.800 23.122,350.800 22.200 C 350.800 21.222,350.733 21.200,347.800 21.200 C 344.867 21.200,344.800 21.178,344.800 20.200 L 344.800 19.200 200.000 19.200 L 55.200 19.200 55.200 20.200 M210.096 83.572 C 212.771 83.778,214.745 84.134,215.325 84.514 C 215.837 84.850,217.281 85.253,218.534 85.409 C 219.786 85.566,221.223 86.018,221.727 86.414 C 222.230 86.810,223.333 87.264,224.176 87.422 C 225.020 87.580,226.004 88.004,226.364 88.364 C 226.725 88.725,227.780 89.247,228.710 89.526 C 229.639 89.804,230.400 90.196,230.400 90.397 C 230.400 90.598,231.210 91.121,232.200 91.559 C 233.190 91.997,234.000 92.523,234.000 92.729 C 234.000 92.935,234.527 93.321,235.171 93.588 C 235.815 93.855,236.441 94.329,236.561 94.643 C 236.681 94.956,237.234 95.385,237.790 95.596 C 238.345 95.807,238.800 96.255,238.800 96.590 C 238.800 96.926,238.997 97.200,239.237 97.200 C 239.791 97.200,244.800 102.185,244.800 102.736 C 244.800 102.962,245.151 103.257,245.580 103.394 C 246.008 103.530,246.472 103.997,246.611 104.433 C 246.749 104.869,247.298 105.662,247.831 106.195 C 248.364 106.728,248.800 107.344,248.800 107.564 C 248.800 107.784,249.250 108.414,249.800 108.964 C 250.350 109.514,250.800 110.304,250.800 110.720 C 250.800 111.136,251.150 111.793,251.577 112.179 C 252.005 112.566,252.474 113.449,252.621 114.141 C 252.767 114.834,253.212 115.760,253.611 116.200 C 254.009 116.640,254.462 117.720,254.616 118.600 C 254.771 119.480,255.230 120.753,255.637 121.428 C 256.043 122.103,256.488 123.723,256.625 125.028 C 256.762 126.333,257.217 128.436,257.637 129.702 C 258.057 130.967,258.400 132.253,258.400 132.559 C 258.400 133.358,259.309 133.599,262.333 133.605 C 263.800 133.607,265.990 133.894,267.200 134.241 C 268.410 134.588,270.903 135.114,272.739 135.410 C 274.576 135.705,276.376 136.213,276.739 136.538 C 277.103 136.863,278.257 137.256,279.305 137.411 C 280.352 137.565,281.612 138.008,282.105 138.394 C 282.597 138.780,283.630 139.229,284.400 139.391 C 285.170 139.553,286.160 140.006,286.600 140.397 C 287.040 140.788,287.850 141.243,288.400 141.409 C 288.950 141.574,289.909 142.135,290.531 142.655 C 291.153 143.175,291.847 143.600,292.073 143.600 C 292.299 143.600,293.050 144.043,293.742 144.583 C 296.350 146.622,297.329 147.426,298.260 148.291 C 298.787 148.781,299.574 149.372,300.009 149.605 C 300.444 149.838,300.800 150.263,300.800 150.550 C 300.800 150.837,301.250 151.277,301.800 151.527 C 302.350 151.778,302.800 152.245,302.800 152.564 C 302.800 152.884,303.160 153.260,303.600 153.400 C 304.040 153.540,304.400 153.814,304.400 154.011 C 304.400 154.207,304.850 154.870,305.401 155.484 C 307.741 158.094,308.800 159.545,308.800 160.139 C 308.800 160.487,309.148 160.958,309.573 161.186 C 309.998 161.413,310.473 162.004,310.628 162.500 C 310.783 162.995,311.335 163.909,311.855 164.531 C 312.375 165.153,312.800 166.024,312.800 166.467 C 312.800 166.909,313.165 167.571,313.612 167.936 C 314.060 168.302,314.536 169.317,314.673 170.200 C 314.810 171.080,315.157 171.940,315.445 172.111 C 316.018 172.452,316.794 174.864,316.798 176.316 C 316.799 176.820,317.175 177.740,317.634 178.360 C 318.261 179.209,318.524 180.321,318.695 182.844 C 318.834 184.896,319.170 186.581,319.561 187.182 C 320.653 188.859,320.728 202.449,319.664 205.938 C 319.217 207.402,318.745 210.130,318.616 212.000 C 318.452 214.352,318.156 215.708,317.655 216.400 C 317.256 216.950,316.804 218.475,316.651 219.789 C 316.473 221.312,316.087 222.481,315.586 223.015 C 315.154 223.475,314.800 224.218,314.800 224.666 C 314.800 225.907,314.007 227.912,313.429 228.134 C 313.145 228.242,312.796 229.067,312.652 229.965 C 312.493 230.956,312.078 231.794,311.595 232.096 C 311.158 232.369,310.800 232.985,310.800 233.466 C 310.800 233.946,310.388 234.847,309.884 235.469 C 309.381 236.091,308.755 237.095,308.493 237.700 C 308.231 238.305,307.743 238.800,307.409 238.800 C 307.042 238.800,306.800 239.162,306.800 239.711 C 306.800 240.535,306.049 241.623,303.624 244.314 C 303.171 244.817,302.800 245.398,302.800 245.605 C 302.800 245.812,302.350 246.276,301.800 246.637 C 301.250 246.997,300.800 247.485,300.800 247.721 C 300.800 248.232,284.196 264.800,283.683 264.800 C 283.488 264.800,283.123 265.250,282.873 265.800 C 282.622 266.350,282.155 266.800,281.836 266.800 C 281.516 266.800,281.140 267.160,281.000 267.600 C 280.860 268.040,280.574 268.400,280.364 268.400 C 280.154 268.400,279.023 269.390,277.851 270.600 C 276.679 271.810,275.534 272.800,275.307 272.800 C 275.079 272.800,274.796 273.173,274.676 273.630 C 274.557 274.086,274.103 274.553,273.667 274.667 C 273.231 274.781,272.781 275.231,272.667 275.667 C 272.553 276.103,272.086 276.557,271.630 276.676 C 271.173 276.796,270.800 277.146,270.800 277.455 C 270.800 277.764,270.353 278.221,269.808 278.469 C 269.262 278.718,268.713 279.245,268.587 279.640 C 268.462 280.036,268.017 280.467,267.600 280.600 C 267.183 280.733,266.730 281.192,266.594 281.620 C 266.457 282.049,266.198 282.400,266.016 282.400 C 265.835 282.400,263.762 284.290,261.409 286.600 C 259.057 288.910,256.968 290.800,256.766 290.800 C 256.565 290.800,256.400 291.064,256.400 291.386 C 256.400 291.708,256.067 292.150,255.660 292.368 C 255.253 292.586,252.300 295.337,249.098 298.482 C 245.896 301.627,240.794 306.540,237.761 309.400 C 234.728 312.260,231.758 315.095,231.162 315.700 C 230.567 316.305,229.902 316.800,229.686 316.800 C 229.469 316.800,228.997 317.250,228.637 317.800 C 228.276 318.350,227.812 318.800,227.605 318.800 C 227.398 318.800,226.817 319.176,226.314 319.636 C 224.572 321.230,222.287 322.800,221.709 322.800 C 221.390 322.800,220.829 323.165,220.464 323.612 C 220.099 324.059,219.080 324.539,218.200 324.679 C 217.320 324.818,216.420 325.175,216.200 325.472 C 215.129 326.915,207.041 326.971,205.750 325.544 C 205.379 325.135,204.646 324.800,204.120 324.800 C 203.594 324.800,202.728 324.364,202.195 323.831 C 201.662 323.298,200.860 322.746,200.412 322.604 C 199.965 322.462,199.413 321.998,199.186 321.573 C 198.958 321.148,198.579 320.800,198.343 320.800 C 197.813 320.800,186.800 309.718,186.800 309.185 C 186.800 308.973,186.526 308.800,186.190 308.800 C 185.855 308.800,185.409 308.350,185.200 307.800 C 184.991 307.250,184.557 306.800,184.237 306.800 C 183.916 306.800,183.545 306.456,183.411 306.036 C 183.278 305.615,182.726 304.981,182.184 304.627 C 181.643 304.272,181.200 303.737,181.200 303.437 C 181.200 303.138,180.827 302.796,180.370 302.676 C 179.914 302.557,179.447 302.103,179.333 301.667 C 179.219 301.231,178.769 300.781,178.333 300.667 C 177.897 300.553,177.443 300.086,177.324 299.630 C 177.204 299.173,176.854 298.800,176.545 298.800 C 176.236 298.800,175.778 298.350,175.527 297.800 C 175.277 297.250,174.827 296.800,174.527 296.800 C 174.228 296.800,173.779 296.353,173.531 295.808 C 173.282 295.262,172.746 294.710,172.339 294.581 C 171.933 294.452,171.600 294.204,171.600 294.029 C 171.600 293.855,169.800 291.888,167.600 289.659 C 165.400 287.430,163.600 285.453,163.600 285.267 C 163.600 285.081,163.150 284.723,162.600 284.473 C 162.050 284.222,161.600 283.772,161.600 283.473 C 161.600 283.173,161.150 282.723,160.600 282.473 C 160.050 282.222,159.600 281.855,159.600 281.656 C 159.600 281.458,156.945 278.601,153.700 275.307 C 150.455 272.014,145.280 266.660,142.200 263.409 C 139.120 260.158,134.845 255.707,132.700 253.518 C 130.555 251.329,128.800 249.372,128.800 249.169 C 128.800 248.966,128.530 248.800,128.200 248.800 C 127.870 248.800,127.600 248.616,127.600 248.391 C 127.600 248.166,126.610 247.023,125.400 245.851 C 124.190 244.679,123.200 243.534,123.200 243.307 C 123.200 243.079,122.827 242.796,122.370 242.676 C 121.914 242.557,121.447 242.103,121.333 241.667 C 121.219 241.231,120.769 240.781,120.333 240.667 C 119.897 240.553,119.443 240.086,119.324 239.630 C 119.204 239.173,118.854 238.800,118.545 238.800 C 118.236 238.800,117.779 238.353,117.531 237.808 C 117.282 237.262,116.755 236.713,116.360 236.587 C 115.964 236.462,115.533 236.017,115.400 235.600 C 115.267 235.183,114.808 234.730,114.380 234.594 C 113.951 234.457,113.600 234.193,113.600 234.007 C 113.600 233.820,111.800 231.855,109.600 229.639 C 107.400 227.424,105.600 225.457,105.600 225.270 C 105.600 225.082,105.150 224.723,104.600 224.473 C 104.050 224.222,103.600 223.755,103.600 223.436 C 103.600 223.116,103.240 222.740,102.800 222.600 C 102.360 222.460,102.000 222.194,102.000 222.007 C 102.000 221.821,99.255 218.878,95.900 215.469 C 85.712 205.116,80.101 199.143,78.200 196.627 C 77.760 196.045,77.006 195.112,76.525 194.553 C 76.044 193.994,75.528 192.966,75.380 192.268 C 75.232 191.571,74.816 190.667,74.455 190.259 C 73.374 189.037,73.267 181.047,74.313 179.632 C 74.746 179.047,75.228 177.982,75.386 177.265 C 75.543 176.548,76.016 175.747,76.436 175.485 C 76.856 175.222,77.200 174.708,77.200 174.342 C 77.200 173.975,77.835 172.894,78.612 171.938 C 80.419 169.713,83.249 166.478,83.919 165.871 C 84.205 165.612,84.655 165.166,84.919 164.881 C 85.184 164.595,85.634 164.145,85.919 163.881 C 86.205 163.616,86.655 163.166,86.919 162.881 C 87.184 162.595,87.634 162.145,87.919 161.881 C 88.205 161.616,88.655 161.166,88.919 160.881 C 89.184 160.595,89.626 160.145,89.902 159.881 C 90.179 159.616,92.760 157.105,95.639 154.300 C 98.518 151.495,101.037 149.200,101.236 149.200 C 101.436 149.200,101.600 148.924,101.600 148.587 C 101.600 148.251,101.882 147.867,102.227 147.734 C 102.572 147.602,105.521 144.863,108.780 141.647 C 115.260 135.253,119.156 131.489,130.568 120.600 C 134.719 116.640,139.052 112.455,140.197 111.300 C 141.342 110.145,142.466 109.200,142.693 109.200 C 142.921 109.200,143.204 108.827,143.324 108.370 C 143.443 107.914,143.908 107.445,144.357 107.327 C 144.806 107.210,145.282 106.773,145.414 106.357 C 145.546 105.941,145.802 105.600,145.982 105.600 C 146.163 105.600,147.308 104.655,148.527 103.500 C 149.746 102.345,151.251 100.979,151.872 100.464 C 152.492 99.950,153.617 99.005,154.372 98.364 C 155.127 97.724,155.975 97.200,156.258 97.200 C 156.541 97.200,156.965 96.840,157.200 96.400 C 157.435 95.960,157.892 95.600,158.214 95.600 C 158.536 95.600,159.176 95.224,159.635 94.765 C 160.094 94.306,161.054 93.686,161.767 93.388 C 162.480 93.090,163.282 92.583,163.548 92.262 C 163.815 91.941,164.506 91.560,165.085 91.414 C 165.663 91.269,166.565 90.814,167.087 90.403 C 167.610 89.992,168.607 89.530,169.303 89.377 C 169.999 89.225,171.026 88.779,171.584 88.387 C 172.143 87.995,173.320 87.553,174.200 87.404 C 175.080 87.254,176.094 86.869,176.453 86.547 C 176.812 86.225,178.342 85.770,179.853 85.536 C 181.364 85.303,183.140 84.829,183.800 84.483 C 185.870 83.400,201.047 82.874,210.096 83.572 M190.514 139.566 C 190.027 139.973,188.947 140.433,188.114 140.588 C 187.281 140.743,186.271 141.222,185.869 141.651 C 185.468 142.081,184.613 142.537,183.969 142.666 C 183.326 142.795,182.800 143.141,182.800 143.436 C 182.800 143.731,182.395 144.185,181.900 144.446 C 181.405 144.706,180.640 145.267,180.200 145.692 C 176.264 149.496,168.265 157.146,163.776 161.400 C 160.757 164.260,156.871 167.995,155.139 169.700 C 153.408 171.405,151.809 172.800,151.586 172.800 C 151.363 172.800,151.009 173.250,150.800 173.800 C 150.567 174.412,150.106 174.800,149.610 174.800 C 149.069 174.800,148.800 175.063,148.800 175.592 C 148.800 176.096,148.449 176.473,147.838 176.626 C 147.309 176.759,146.782 177.226,146.667 177.664 C 146.553 178.101,146.089 178.556,145.636 178.675 L 144.813 178.890 145.631 179.945 C 146.688 181.308,153.465 188.520,158.700 193.852 C 160.955 196.149,162.800 198.173,162.800 198.350 C 162.800 198.527,163.250 198.877,163.800 199.127 C 164.350 199.378,164.800 199.836,164.800 200.145 C 164.800 200.455,165.250 201.003,165.800 201.363 C 166.350 201.724,166.800 202.263,166.800 202.563 C 166.800 202.862,167.173 203.204,167.630 203.324 C 168.086 203.443,168.553 203.897,168.667 204.333 C 168.781 204.769,169.231 205.219,169.667 205.333 C 170.103 205.447,170.553 205.897,170.667 206.333 C 170.781 206.769,171.231 207.219,171.667 207.333 C 172.103 207.447,172.555 207.908,172.673 208.357 C 172.790 208.806,173.218 209.279,173.623 209.407 C 174.028 209.536,174.467 209.983,174.600 210.400 C 174.733 210.817,175.183 211.267,175.600 211.400 C 176.017 211.533,176.467 211.983,176.600 212.400 C 176.733 212.817,177.192 213.270,177.620 213.406 C 178.049 213.543,178.400 213.813,178.400 214.008 C 178.400 214.203,179.840 215.809,181.600 217.576 C 183.360 219.343,184.800 220.971,184.800 221.194 C 184.800 221.417,185.074 221.600,185.409 221.600 C 185.743 221.600,186.222 222.050,186.473 222.600 C 186.723 223.150,187.173 223.600,187.473 223.600 C 187.772 223.600,188.221 224.047,188.469 224.592 C 188.718 225.138,189.254 225.690,189.661 225.819 C 190.067 225.948,190.400 226.200,190.400 226.379 C 190.400 226.558,192.605 228.953,195.300 231.701 C 199.586 236.072,206.426 243.179,214.879 252.043 C 217.712 255.013,218.990 255.692,219.388 254.437 C 219.527 253.999,219.983 253.533,220.400 253.400 C 220.817 253.267,221.270 252.808,221.406 252.380 C 221.543 251.951,221.804 251.600,221.987 251.600 C 222.170 251.600,225.050 248.900,228.387 245.600 C 231.723 242.300,234.519 239.600,234.600 239.600 C 234.681 239.600,237.436 236.945,240.722 233.700 C 244.008 230.455,249.015 225.545,251.849 222.788 C 254.682 220.031,257.683 216.971,258.517 215.988 C 259.351 215.005,260.269 213.930,260.556 213.600 C 260.844 213.270,261.288 212.382,261.544 211.626 C 261.800 210.870,262.321 209.909,262.701 209.489 C 263.835 208.235,263.692 201.415,262.496 199.734 C 262.003 199.043,261.600 198.197,261.600 197.855 C 261.600 197.194,258.477 192.800,258.007 192.800 C 257.854 192.800,257.523 192.350,257.273 191.800 C 257.022 191.250,256.564 190.800,256.255 190.800 C 255.945 190.800,255.397 190.350,255.037 189.800 C 254.676 189.250,254.147 188.800,253.861 188.800 C 253.574 188.800,252.935 188.370,252.441 187.844 C 251.947 187.318,250.749 186.666,249.779 186.394 C 248.809 186.123,247.810 185.653,247.559 185.350 C 246.860 184.508,244.812 184.696,242.632 185.802 C 241.550 186.351,240.264 186.800,239.775 186.800 C 239.286 186.800,238.781 187.072,238.654 187.403 C 238.527 187.735,237.922 188.230,237.311 188.503 C 236.700 188.777,235.819 189.405,235.354 189.900 C 234.889 190.395,234.336 190.800,234.126 190.800 C 233.916 190.800,233.353 191.250,232.875 191.800 C 232.397 192.350,231.734 192.800,231.403 192.800 C 231.071 192.800,230.800 193.064,230.800 193.386 C 230.800 193.708,230.445 194.162,230.010 194.395 C 229.576 194.627,228.425 195.623,227.454 196.609 C 226.483 197.594,225.561 198.400,225.405 198.400 C 225.249 198.400,224.613 198.895,223.991 199.500 C 222.126 201.316,220.125 202.800,219.541 202.800 C 219.239 202.800,218.773 203.151,218.505 203.580 C 218.237 204.009,217.339 204.487,216.509 204.643 C 215.679 204.798,214.815 205.177,214.589 205.484 C 213.306 207.232,204.413 207.143,203.735 205.375 C 203.614 205.059,203.075 204.800,202.539 204.800 C 202.003 204.800,201.158 204.395,200.663 203.900 C 200.167 203.405,199.276 202.779,198.681 202.509 C 198.086 202.238,197.600 201.743,197.600 201.409 C 197.600 201.074,197.375 200.798,197.100 200.795 C 196.168 200.786,189.893 193.553,189.360 191.873 C 189.210 191.401,188.718 190.516,188.267 189.905 C 186.883 188.034,187.053 180.232,188.523 178.111 C 189.115 177.256,189.600 176.323,189.600 176.036 C 189.600 175.419,192.046 172.182,194.500 169.552 C 195.105 168.903,195.600 168.211,195.600 168.013 C 195.600 167.816,195.951 167.543,196.380 167.406 C 196.808 167.270,197.267 166.817,197.400 166.400 C 197.533 165.983,197.964 165.538,198.360 165.413 C 198.755 165.287,199.282 164.738,199.531 164.192 C 199.779 163.647,200.257 163.200,200.591 163.200 C 200.926 163.200,201.200 162.934,201.200 162.609 C 201.200 162.284,201.650 161.724,202.200 161.363 C 202.750 161.003,203.200 160.473,203.200 160.185 C 203.200 159.897,203.666 159.108,204.235 158.431 C 206.346 155.922,206.756 148.000,204.775 148.000 C 204.582 148.000,204.014 147.281,203.512 146.403 C 203.010 145.525,202.378 144.805,202.108 144.803 C 201.837 144.801,201.502 144.350,201.364 143.800 C 201.226 143.250,200.876 142.800,200.586 142.800 C 200.295 142.800,199.722 142.372,199.311 141.850 C 198.899 141.327,198.005 140.777,197.323 140.627 C 196.641 140.477,195.766 140.005,195.379 139.577 C 194.453 138.554,191.735 138.547,190.514 139.566 " stroke="none" fill="#6414fc" fill-rule="evenodd"></path><path id="path2" d="M167.944 90.824 L 167.000 91.647 168.200 90.945 C 169.779 90.020,169.803 90.000,169.311 90.000 C 169.079 90.000,168.464 90.371,167.944 90.824 M155.322 98.629 L 154.200 99.658 155.500 98.754 C 156.215 98.257,156.800 97.793,156.800 97.725 C 156.800 97.409,156.358 97.680,155.322 98.629 M150.175 102.900 L 149.000 104.200 150.300 103.025 C 151.512 101.930,151.784 101.600,151.475 101.600 C 151.406 101.600,150.821 102.185,150.175 102.900 M144.587 108.100 L 142.200 110.600 144.700 108.213 C 147.022 105.995,147.383 105.600,147.087 105.600 C 147.026 105.600,145.901 106.725,144.587 108.100 M249.044 109.580 C 249.288 109.921,249.688 110.560,249.932 111.000 C 250.176 111.440,250.381 111.585,250.388 111.322 C 250.395 111.060,249.995 110.421,249.500 109.903 C 249.005 109.385,248.800 109.240,249.044 109.580 M131.600 120.600 C 129.961 122.250,128.710 123.600,128.820 123.600 C 128.930 123.600,130.361 122.250,132.000 120.600 C 133.639 118.950,134.890 117.600,134.780 117.600 C 134.670 117.600,133.239 118.950,131.600 120.600 M122.592 129.300 L 119.000 133.000 122.700 129.408 C 126.136 126.072,126.582 125.600,126.292 125.600 C 126.232 125.600,124.567 127.265,122.592 129.300 M112.992 138.500 L 109.000 142.600 113.100 138.608 C 116.908 134.899,117.382 134.400,117.092 134.400 C 117.033 134.400,115.188 136.245,112.992 138.500 M263.300 134.676 C 263.685 134.776,264.315 134.776,264.700 134.676 C 265.085 134.575,264.770 134.493,264.000 134.493 C 263.230 134.493,262.915 134.575,263.300 134.676 M275.146 137.016 C 275.886 137.337,276.606 137.594,276.746 137.586 C 277.266 137.557,274.976 136.428,274.400 136.430 C 274.070 136.431,274.406 136.694,275.146 137.016 M178.975 145.700 L 177.800 147.000 179.100 145.825 C 179.815 145.179,180.400 144.594,180.400 144.525 C 180.400 144.216,180.070 144.488,178.975 145.700 M102.000 149.000 C 100.361 150.650,99.110 152.000,99.220 152.000 C 99.330 152.000,100.761 150.650,102.400 149.000 C 104.039 147.350,105.290 146.000,105.180 146.000 C 105.070 146.000,103.639 147.350,102.000 149.000 M173.586 150.700 L 171.400 153.000 173.700 150.814 C 175.837 148.782,176.183 148.400,175.886 148.400 C 175.824 148.400,174.789 149.435,173.586 150.700 M301.200 152.200 C 302.617 153.630,303.867 154.800,303.977 154.800 C 304.087 154.800,303.017 153.630,301.600 152.200 C 300.183 150.770,298.933 149.600,298.823 149.600 C 298.713 149.600,299.783 150.770,301.200 152.200 M207.180 152.110 C 207.375 153.758,207.383 153.767,207.519 152.449 C 207.596 151.706,207.506 150.946,207.320 150.760 C 207.133 150.573,207.071 151.181,207.180 152.110 M86.189 164.500 L 83.400 167.400 86.300 164.611 C 88.994 162.020,89.383 161.600,89.089 161.600 C 89.028 161.600,87.723 162.905,86.189 164.500 M198.800 165.800 C 197.161 167.450,195.910 168.800,196.020 168.800 C 196.130 168.800,197.561 167.450,199.200 165.800 C 200.839 164.150,202.090 162.800,201.980 162.800 C 201.870 162.800,200.439 164.150,198.800 165.800 M152.175 171.300 L 151.000 172.600 152.300 171.425 C 153.512 170.330,153.784 170.000,153.475 170.000 C 153.406 170.000,152.821 170.585,152.175 171.300 M74.093 183.200 C 74.093 183.970,74.175 184.285,74.276 183.900 C 74.376 183.515,74.376 182.885,74.276 182.500 C 74.175 182.115,74.093 182.430,74.093 183.200 M148.400 184.600 C 149.595 185.810,150.663 186.800,150.773 186.800 C 150.883 186.800,149.995 185.810,148.800 184.600 C 147.605 183.390,146.537 182.400,146.427 182.400 C 146.317 182.400,147.205 183.390,148.400 184.600 M319.309 193.200 C 319.309 194.190,319.387 194.595,319.482 194.100 C 319.578 193.605,319.578 192.795,319.482 192.300 C 319.387 191.805,319.309 192.210,319.309 193.200 M229.578 193.500 L 228.200 195.000 229.700 193.622 C 231.096 192.338,231.384 192.000,231.078 192.000 C 231.012 192.000,230.337 192.675,229.578 193.500 M225.375 197.300 L 224.200 198.600 225.500 197.425 C 226.215 196.779,226.800 196.194,226.800 196.125 C 226.800 195.816,226.470 196.088,225.375 197.300 M319.331 199.800 C 319.333 201.340,319.405 201.921,319.492 201.091 C 319.579 200.261,319.577 199.001,319.489 198.291 C 319.400 197.581,319.329 198.260,319.331 199.800 M85.400 203.600 C 86.706 204.920,87.865 206.000,87.975 206.000 C 88.085 206.000,87.106 204.920,85.800 203.600 C 84.494 202.280,83.335 201.200,83.225 201.200 C 83.115 201.200,84.094 202.280,85.400 203.600 M201.544 203.576 C 202.064 204.029,202.679 204.400,202.911 204.400 C 203.403 204.400,203.379 204.380,201.800 203.455 L 200.600 202.753 201.544 203.576 M172.200 209.200 C 173.506 210.520,174.665 211.600,174.775 211.600 C 174.885 211.600,173.906 210.520,172.600 209.200 C 171.294 207.880,170.135 206.800,170.025 206.800 C 169.915 206.800,170.894 207.880,172.200 209.200 M94.600 213.200 C 96.792 215.400,98.675 217.200,98.785 217.200 C 98.895 217.200,97.192 215.400,95.000 213.200 C 92.808 211.000,90.925 209.200,90.815 209.200 C 90.705 209.200,92.408 211.000,94.600 213.200 M255.588 220.300 L 253.000 223.000 255.700 220.412 C 257.185 218.988,258.400 217.773,258.400 217.712 C 258.400 217.417,257.993 217.792,255.588 220.300 M104.400 223.400 C 105.595 224.610,106.663 225.600,106.773 225.600 C 106.883 225.600,105.995 224.610,104.800 223.400 C 103.605 222.190,102.537 221.200,102.427 221.200 C 102.317 221.200,103.205 222.190,104.400 223.400 M186.200 223.600 C 187.506 224.920,188.665 226.000,188.775 226.000 C 188.885 226.000,187.906 224.920,186.600 223.600 C 185.294 222.280,184.135 221.200,184.025 221.200 C 183.915 221.200,184.894 222.280,186.200 223.600 M245.991 229.500 L 242.600 233.000 246.100 229.609 C 249.351 226.459,249.782 226.000,249.491 226.000 C 249.431 226.000,247.856 227.575,245.991 229.500 M196.000 233.800 C 197.417 235.230,198.667 236.400,198.777 236.400 C 198.887 236.400,197.817 235.230,196.400 233.800 C 194.983 232.370,193.733 231.200,193.623 231.200 C 193.513 231.200,194.583 232.370,196.000 233.800 M118.000 237.325 C 118.000 237.394,118.585 237.979,119.300 238.625 L 120.600 239.800 119.425 238.500 C 118.330 237.288,118.000 237.016,118.000 237.325 M234.000 241.000 C 232.361 242.650,231.110 244.000,231.220 244.000 C 231.330 244.000,232.761 242.650,234.400 241.000 C 236.039 239.350,237.290 238.000,237.180 238.000 C 237.070 238.000,235.639 239.350,234.000 241.000 M205.200 243.400 C 205.946 244.170,206.647 244.800,206.757 244.800 C 206.867 244.800,206.346 244.170,205.600 243.400 C 204.854 242.630,204.153 242.000,204.043 242.000 C 203.933 242.000,204.454 242.630,205.200 243.400 M131.600 251.325 C 131.600 251.394,132.185 251.979,132.900 252.625 L 134.200 253.800 133.025 252.500 C 131.930 251.288,131.600 251.016,131.600 251.325 M215.200 253.800 C 215.946 254.570,216.647 255.200,216.757 255.200 C 216.867 255.200,216.346 254.570,215.600 253.800 C 214.854 253.030,214.153 252.400,214.043 252.400 C 213.933 252.400,214.454 253.030,215.200 253.800 M220.162 254.447 C 219.743 254.913,219.040 255.442,218.600 255.622 C 218.034 255.854,217.983 255.957,218.425 255.975 C 218.769 255.989,219.568 255.460,220.200 254.800 C 220.832 254.140,221.254 253.600,221.137 253.600 C 221.020 253.600,220.581 253.981,220.162 254.447 M143.200 263.400 C 144.395 264.610,145.463 265.600,145.573 265.600 C 145.683 265.600,144.795 264.610,143.600 263.400 C 142.405 262.190,141.337 261.200,141.227 261.200 C 141.117 261.200,142.005 262.190,143.200 263.400 M283.978 263.500 L 282.600 265.000 284.100 263.622 C 285.496 262.338,285.784 262.000,285.478 262.000 C 285.412 262.000,284.737 262.675,283.978 263.500 M148.800 269.310 C 148.800 269.371,150.195 270.766,151.900 272.410 L 155.000 275.400 152.010 272.300 C 149.233 269.421,148.800 269.017,148.800 269.310 M270.788 276.300 L 268.200 279.000 270.900 276.412 C 272.385 274.988,273.600 273.773,273.600 273.712 C 273.600 273.417,273.193 273.792,270.788 276.300 M161.400 282.400 C 163.150 284.160,164.671 285.600,164.781 285.600 C 164.891 285.600,163.550 284.160,161.800 282.400 C 160.050 280.640,158.529 279.200,158.419 279.200 C 158.309 279.200,159.650 280.640,161.400 282.400 M256.187 290.500 L 253.800 293.000 256.300 290.613 C 257.675 289.299,258.800 288.174,258.800 288.113 C 258.800 287.817,258.405 288.178,256.187 290.500 M176.000 297.400 C 177.195 298.610,178.263 299.600,178.373 299.600 C 178.483 299.600,177.595 298.610,176.400 297.400 C 175.205 296.190,174.137 295.200,174.027 295.200 C 173.917 295.200,174.805 296.190,176.000 297.400 M247.787 298.500 L 245.400 301.000 247.900 298.613 C 249.275 297.299,250.400 296.174,250.400 296.113 C 250.400 295.817,250.005 296.178,247.787 298.500 M189.600 311.325 C 189.600 311.394,190.185 311.979,190.900 312.625 L 192.200 313.800 191.025 312.500 C 189.930 311.288,189.600 311.016,189.600 311.325 M196.400 318.125 C 196.400 318.194,196.985 318.779,197.700 319.425 L 199.000 320.600 197.825 319.300 C 196.730 318.088,196.400 317.816,196.400 318.125 M199.967 321.345 C 200.500 322.001,202.000 322.993,202.000 322.689 C 202.000 322.613,201.415 322.122,200.700 321.599 C 199.896 321.010,199.616 320.913,199.967 321.345 M209.700 325.887 C 210.305 325.978,211.295 325.978,211.900 325.887 C 212.505 325.795,212.010 325.720,210.800 325.720 C 209.590 325.720,209.095 325.795,209.700 325.887 " stroke="none" fill="#a47efc" fill-rule="evenodd"></path><path id="path3" d="M188.200 84.624 C 179.027 86.433,175.109 87.668,168.582 90.809 C 157.915 95.941,154.110 98.997,133.800 118.744 C 130.939 121.525,126.254 126.050,123.388 128.800 C 90.288 160.561,83.017 167.778,79.233 172.631 C 72.505 181.260,72.869 189.418,80.356 197.800 C 82.554 200.260,87.780 205.785,94.170 212.401 C 96.827 215.152,101.610 220.108,104.800 223.416 C 107.990 226.723,115.756 234.733,122.059 241.215 C 132.877 252.342,134.944 254.481,142.918 262.800 C 144.710 264.670,148.612 268.728,151.588 271.818 C 185.158 306.670,197.507 319.203,200.400 321.357 C 201.610 322.258,202.700 323.130,202.822 323.295 C 204.892 326.089,215.123 325.900,219.837 322.981 C 227.025 318.530,227.745 317.906,244.587 301.531 C 247.454 298.743,250.340 295.974,251.000 295.378 C 252.227 294.270,254.202 292.364,273.986 273.200 C 295.805 252.065,302.967 244.707,304.437 241.916 C 304.703 241.412,305.028 240.910,305.160 240.800 C 306.147 239.978,311.671 230.545,312.187 228.800 C 312.350 228.250,312.721 227.421,313.012 226.959 C 313.714 225.843,315.478 220.797,316.213 217.800 C 316.537 216.480,316.999 214.950,317.240 214.400 C 317.688 213.374,318.589 206.744,319.197 200.000 C 319.641 195.066,318.404 183.603,316.966 179.333 C 316.435 177.756,316.000 176.125,316.000 175.709 C 316.000 175.293,315.733 174.604,315.406 174.176 C 315.080 173.749,314.614 172.690,314.370 171.822 C 312.264 164.317,301.302 150.767,292.799 145.158 C 288.247 142.155,279.919 138.000,278.452 138.000 C 278.205 138.000,276.920 137.625,275.596 137.167 C 273.156 136.322,268.971 135.532,262.800 134.750 C 257.227 134.043,257.126 133.944,256.349 128.447 C 254.217 113.363,242.774 98.008,227.863 90.224 C 225.521 89.001,223.413 88.000,223.180 88.000 C 222.947 88.000,221.984 87.648,221.040 87.218 C 220.096 86.788,218.081 86.161,216.562 85.825 C 215.043 85.489,212.630 84.947,211.200 84.621 C 207.726 83.829,192.223 83.831,188.200 84.624 M210.724 85.354 C 211.316 85.657,213.286 86.102,215.101 86.344 C 216.917 86.586,218.807 87.045,219.301 87.366 C 219.796 87.686,221.100 88.168,222.200 88.437 C 223.300 88.707,224.613 89.246,225.119 89.636 C 225.624 90.026,226.550 90.457,227.177 90.595 C 227.804 90.733,228.634 91.195,229.021 91.623 C 229.407 92.050,229.941 92.400,230.207 92.400 C 230.473 92.400,231.337 92.895,232.129 93.500 C 232.920 94.105,234.219 95.050,235.015 95.600 C 237.639 97.412,243.600 102.968,243.600 103.602 C 243.600 103.796,243.915 104.191,244.300 104.481 C 245.189 105.149,246.576 106.993,247.569 108.827 C 247.994 109.611,248.625 110.489,248.971 110.776 C 249.317 111.063,249.600 111.574,249.600 111.911 C 249.600 112.249,250.050 113.114,250.600 113.836 C 251.150 114.557,251.601 115.474,251.601 115.873 C 251.602 116.273,251.946 117.163,252.366 117.851 C 252.785 118.539,253.419 120.236,253.774 121.622 C 254.129 123.008,254.604 124.364,254.830 124.636 C 255.055 124.908,255.429 126.901,255.659 129.065 C 256.283 134.911,257.065 135.313,270.354 136.604 C 271.758 136.740,273.288 137.094,273.754 137.389 C 274.219 137.685,275.680 138.145,277.000 138.412 C 278.320 138.679,279.760 139.149,280.200 139.458 C 280.640 139.767,281.714 140.213,282.586 140.448 C 283.458 140.684,284.592 141.207,285.105 141.611 C 285.618 142.014,286.550 142.457,287.177 142.595 C 287.804 142.733,288.634 143.195,289.021 143.623 C 289.407 144.050,289.941 144.400,290.207 144.400 C 290.673 144.400,292.427 145.620,295.055 147.772 C 295.745 148.338,296.412 148.800,296.538 148.800 C 297.125 148.800,304.718 156.949,306.400 159.385 C 306.950 160.181,307.895 161.480,308.500 162.271 C 309.105 163.063,309.600 163.893,309.600 164.117 C 309.600 164.341,310.050 165.114,310.600 165.836 C 311.150 166.557,311.600 167.404,311.600 167.719 C 311.600 168.034,311.982 168.777,312.448 169.370 C 312.914 169.963,313.465 171.200,313.671 172.118 C 313.877 173.037,314.287 174.061,314.582 174.394 C 314.876 174.727,315.331 176.046,315.592 177.325 C 315.853 178.604,316.391 180.404,316.786 181.325 C 318.553 185.439,318.578 209.478,316.819 212.764 C 316.564 213.241,316.091 215.012,315.768 216.700 C 315.445 218.388,314.943 220.136,314.651 220.585 C 314.360 221.033,313.898 222.336,313.626 223.480 C 313.353 224.624,312.880 225.767,312.575 226.020 C 312.271 226.273,311.908 227.082,311.770 227.817 C 311.633 228.552,311.088 229.739,310.560 230.454 C 310.032 231.170,309.600 232.058,309.600 232.429 C 309.600 232.799,309.305 233.347,308.945 233.645 C 308.585 233.944,307.953 234.911,307.541 235.794 C 307.128 236.677,306.247 238.120,305.583 239.000 C 304.919 239.880,304.072 241.050,303.701 241.600 C 300.925 245.712,290.565 256.260,267.358 278.600 C 263.473 282.340,259.082 286.570,257.599 288.000 C 256.117 289.430,253.306 292.132,251.352 294.005 C 249.398 295.877,243.660 301.388,238.600 306.251 C 228.174 316.270,227.364 317.015,225.391 318.400 C 224.608 318.950,223.320 319.895,222.529 320.500 C 221.737 321.105,220.880 321.600,220.623 321.600 C 220.366 321.600,219.571 322.031,218.857 322.558 C 218.144 323.084,216.744 323.638,215.746 323.787 C 214.749 323.937,213.271 324.293,212.462 324.578 C 210.826 325.155,206.316 324.263,203.896 322.883 C 203.238 322.507,202.227 321.944,201.650 321.632 C 200.510 321.015,172.670 292.958,166.071 285.775 C 165.781 285.459,165.376 285.200,165.171 285.200 C 164.967 285.200,164.800 285.012,164.800 284.781 C 164.800 284.551,163.105 282.616,161.033 280.481 C 157.341 276.677,150.467 269.554,142.423 261.200 C 137.277 255.856,124.394 242.588,116.500 234.502 C 113.145 231.066,110.400 228.119,110.400 227.954 C 110.400 227.789,110.040 227.540,109.600 227.400 C 109.160 227.260,108.800 226.971,108.800 226.758 C 108.800 226.544,106.665 224.172,104.056 221.485 C 96.703 213.914,82.084 198.669,79.656 196.041 C 78.965 195.293,78.400 194.466,78.400 194.203 C 78.400 193.939,78.051 193.408,77.625 193.022 C 77.198 192.636,76.658 191.429,76.425 190.340 C 76.191 189.251,75.730 187.838,75.400 187.200 C 74.640 185.731,74.631 183.487,75.379 182.041 C 75.697 181.425,76.178 180.039,76.447 178.960 C 76.716 177.882,77.265 176.765,77.668 176.477 C 78.070 176.190,78.400 175.727,78.400 175.449 C 78.400 175.171,78.940 174.339,79.600 173.600 C 80.260 172.861,80.800 172.082,80.800 171.870 C 80.800 171.406,80.711 171.501,89.053 163.100 C 92.712 159.415,95.850 156.400,96.026 156.400 C 96.202 156.400,96.452 156.067,96.581 155.661 C 96.710 155.254,97.262 154.718,97.808 154.469 C 98.353 154.221,98.800 153.764,98.800 153.455 C 98.800 153.146,99.173 152.796,99.630 152.676 C 100.086 152.557,100.553 152.103,100.667 151.667 C 100.781 151.231,101.231 150.781,101.667 150.667 C 102.103 150.553,102.557 150.086,102.676 149.630 C 102.796 149.173,103.064 148.800,103.274 148.800 C 103.645 148.800,104.781 147.763,111.162 141.600 C 112.871 139.950,117.657 135.360,121.799 131.400 C 125.940 127.440,132.077 121.500,135.435 118.200 C 144.900 108.901,149.207 104.824,150.038 104.380 C 150.457 104.155,150.800 103.729,150.800 103.433 C 150.800 103.136,151.115 102.786,151.500 102.654 C 152.127 102.441,156.283 99.308,158.734 97.202 C 159.248 96.761,159.895 96.400,160.172 96.400 C 160.449 96.400,160.998 96.045,161.391 95.610 C 161.784 95.176,162.487 94.705,162.953 94.564 C 163.419 94.423,164.160 93.991,164.600 93.603 C 165.040 93.216,166.088 92.678,166.928 92.409 C 167.768 92.140,168.546 91.685,168.656 91.399 C 168.766 91.113,169.509 90.756,170.309 90.606 C 171.108 90.456,172.579 89.898,173.578 89.367 C 174.576 88.835,175.848 88.400,176.403 88.400 C 176.958 88.400,178.070 88.047,178.874 87.617 C 179.678 87.186,181.745 86.651,183.468 86.429 C 185.190 86.207,187.230 85.811,188.000 85.549 C 191.492 84.360,208.495 84.215,210.724 85.354 M190.000 137.840 C 188.704 138.309,184.937 140.222,183.798 140.990 C 182.361 141.959,179.481 144.106,179.200 144.417 C 179.090 144.539,177.740 145.790,176.200 147.198 C 173.373 149.781,159.437 163.211,149.171 173.244 C 145.447 176.883,143.600 178.972,143.600 179.543 C 143.600 180.691,146.158 183.472,162.700 200.304 C 166.495 204.166,169.600 207.382,169.600 207.452 C 169.600 207.522,172.227 210.237,175.437 213.485 C 178.647 216.733,181.444 219.708,181.651 220.095 C 181.858 220.483,182.292 220.800,182.614 220.800 C 182.936 220.800,183.200 220.978,183.200 221.195 C 183.200 221.412,184.505 222.928,186.100 224.563 C 189.102 227.640,199.854 238.808,205.325 244.531 C 219.212 259.059,217.607 258.347,223.476 252.590 C 225.825 250.286,227.883 248.400,228.047 248.400 C 228.212 248.400,228.452 248.067,228.581 247.661 C 228.710 247.254,229.262 246.718,229.808 246.469 C 230.353 246.221,230.800 245.764,230.800 245.455 C 230.800 245.146,231.173 244.796,231.630 244.676 C 232.086 244.557,232.553 244.103,232.667 243.667 C 232.781 243.231,233.231 242.781,233.667 242.667 C 234.103 242.553,234.557 242.086,234.676 241.630 C 234.796 241.173,235.102 240.800,235.358 240.800 C 235.613 240.800,236.282 240.305,236.844 239.700 C 237.407 239.095,241.182 235.438,245.233 231.574 C 256.345 220.977,257.353 219.981,259.367 217.600 C 261.746 214.789,261.586 215.014,263.212 212.200 L 264.600 209.800 264.600 204.582 C 264.600 200.029,264.498 199.214,263.801 198.182 C 263.362 197.532,262.771 196.469,262.487 195.820 C 261.910 194.501,261.842 194.418,258.381 190.840 C 251.825 184.064,244.600 181.582,240.597 184.731 C 239.989 185.209,239.310 185.600,239.087 185.600 C 238.368 185.600,234.007 188.620,231.579 190.800 C 230.967 191.350,229.539 192.610,228.407 193.600 C 227.274 194.590,225.685 196.009,224.874 196.752 C 217.576 203.449,209.940 206.511,205.800 204.400 C 204.937 203.960,203.920 203.600,203.539 203.600 C 203.159 203.600,202.731 203.413,202.590 203.184 C 202.449 202.955,201.622 202.319,200.753 201.770 C 198.997 200.662,198.340 200.107,196.120 197.861 C 195.284 197.015,194.195 195.914,193.700 195.415 C 193.205 194.916,192.800 194.330,192.800 194.113 C 192.800 193.895,192.386 193.270,191.879 192.723 C 191.373 192.177,190.638 190.892,190.248 189.869 C 189.857 188.846,189.371 187.906,189.168 187.781 C 188.555 187.401,188.714 180.970,189.350 180.441 C 189.653 180.190,190.126 179.178,190.402 178.192 C 190.678 177.207,191.057 176.400,191.244 176.400 C 191.431 176.400,191.928 175.725,192.349 174.900 C 192.770 174.075,193.494 173.057,193.957 172.638 C 194.421 172.219,194.800 171.737,194.800 171.566 C 194.800 171.396,196.555 169.456,198.700 167.255 C 200.845 165.055,203.050 162.713,203.600 162.051 C 204.150 161.390,205.003 160.380,205.497 159.807 C 205.990 159.235,206.509 158.279,206.650 157.683 C 206.792 157.087,207.180 156.287,207.512 155.904 C 208.297 155.001,208.599 151.682,208.013 150.400 C 207.110 148.423,206.188 146.840,205.523 146.127 C 198.227 138.292,194.398 136.248,190.000 137.840 M197.452 139.611 C 201.812 142.246,207.591 149.364,207.604 152.114 C 207.620 155.664,204.700 160.125,197.492 167.561 C 185.505 179.926,185.025 187.707,195.593 198.337 C 205.970 208.776,212.981 208.319,226.365 196.331 C 242.577 181.810,247.289 180.965,257.198 190.800 C 267.596 201.121,266.705 210.225,254.150 221.973 C 250.808 225.101,233.814 241.520,225.241 249.904 C 217.822 257.161,218.415 257.049,213.656 252.087 C 211.816 250.169,208.504 246.710,206.295 244.400 C 204.086 242.090,199.921 237.767,197.039 234.793 C 194.158 231.819,186.940 224.359,181.000 218.215 C 175.060 212.070,169.300 206.120,168.200 204.993 C 165.942 202.678,147.084 183.163,145.704 181.713 C 144.525 180.474,144.191 179.063,144.910 178.358 C 145.700 177.583,164.277 159.645,170.381 153.764 C 186.022 138.692,191.336 135.914,197.452 139.611 " stroke="none" fill="#ac8cfc" fill-rule="evenodd"></path><path id="path4" d="M189.000 83.590 C 186.629 83.747,184.511 84.111,183.800 84.483 C 183.140 84.829,181.364 85.303,179.853 85.536 C 178.342 85.770,176.812 86.225,176.453 86.547 C 176.094 86.869,175.080 87.254,174.200 87.404 C 173.320 87.553,172.143 87.995,171.584 88.387 C 171.026 88.779,169.999 89.225,169.303 89.377 C 168.607 89.530,167.610 89.992,167.087 90.403 C 166.565 90.814,165.663 91.269,165.085 91.414 C 164.506 91.560,163.815 91.941,163.548 92.262 C 163.282 92.583,162.480 93.090,161.767 93.388 C 161.054 93.686,160.094 94.306,159.635 94.765 C 159.176 95.224,158.536 95.600,158.214 95.600 C 157.892 95.600,157.435 95.960,157.200 96.400 C 156.965 96.840,156.541 97.200,156.258 97.200 C 155.975 97.200,155.127 97.724,154.372 98.364 C 153.617 99.005,152.492 99.950,151.872 100.464 C 151.251 100.979,149.746 102.345,148.527 103.500 C 147.308 104.655,146.163 105.600,145.982 105.600 C 145.802 105.600,145.546 105.941,145.414 106.357 C 145.282 106.773,144.806 107.210,144.357 107.327 C 143.908 107.445,143.443 107.914,143.324 108.370 C 143.204 108.827,142.921 109.200,142.693 109.200 C 142.466 109.200,141.342 110.145,140.197 111.300 C 139.052 112.455,134.719 116.640,130.568 120.600 C 119.156 131.489,115.260 135.253,108.780 141.647 C 105.521 144.863,102.572 147.602,102.227 147.734 C 101.882 147.867,101.600 148.251,101.600 148.587 C 101.600 148.924,101.436 149.200,101.236 149.200 C 101.037 149.200,98.518 151.495,95.639 154.300 C 92.760 157.105,90.179 159.616,89.902 159.881 C 89.626 160.145,89.184 160.595,88.919 160.881 C 88.655 161.166,88.205 161.616,87.919 161.881 C 87.634 162.145,87.184 162.595,86.919 162.881 C 86.655 163.166,86.205 163.616,85.919 163.881 C 85.634 164.145,85.184 164.595,84.919 164.881 C 84.655 165.166,84.205 165.612,83.919 165.871 C 83.249 166.478,80.419 169.713,78.612 171.938 C 77.835 172.894,77.200 173.975,77.200 174.342 C 77.200 174.708,76.856 175.222,76.436 175.485 C 76.016 175.747,75.543 176.548,75.386 177.265 C 75.228 177.982,74.746 179.047,74.313 179.632 C 73.267 181.047,73.374 189.037,74.455 190.259 C 74.816 190.667,75.232 191.571,75.380 192.268 C 75.528 192.966,76.044 193.994,76.525 194.553 C 77.006 195.112,77.760 196.045,78.200 196.627 C 80.101 199.143,85.712 205.116,95.900 215.469 C 99.255 218.878,102.000 221.821,102.000 222.007 C 102.000 222.194,102.360 222.460,102.800 222.600 C 103.240 222.740,103.600 223.116,103.600 223.436 C 103.600 223.755,104.050 224.222,104.600 224.473 C 105.150 224.723,105.600 225.082,105.600 225.270 C 105.600 225.457,107.400 227.424,109.600 229.639 C 111.800 231.855,113.600 233.820,113.600 234.007 C 113.600 234.193,113.951 234.457,114.380 234.594 C 114.808 234.730,115.267 235.183,115.400 235.600 C 115.533 236.017,115.964 236.462,116.360 236.587 C 116.755 236.713,117.282 237.262,117.531 237.808 C 117.779 238.353,118.236 238.800,118.545 238.800 C 118.854 238.800,119.204 239.173,119.324 239.630 C 119.443 240.086,119.897 240.553,120.333 240.667 C 120.769 240.781,121.219 241.231,121.333 241.667 C 121.447 242.103,121.914 242.557,122.370 242.676 C 122.827 242.796,123.200 243.079,123.200 243.307 C 123.200 243.534,124.190 244.679,125.400 245.851 C 126.610 247.023,127.600 248.166,127.600 248.391 C 127.600 248.616,127.870 248.800,128.200 248.800 C 128.530 248.800,128.800 248.966,128.800 249.169 C 128.800 249.372,130.555 251.329,132.700 253.518 C 134.845 255.707,139.120 260.158,142.200 263.409 C 145.280 266.660,150.455 272.014,153.700 275.307 C 156.945 278.601,159.600 281.458,159.600 281.656 C 159.600 281.855,160.050 282.222,160.600 282.473 C 161.150 282.723,161.600 283.173,161.600 283.473 C 161.600 283.772,162.050 284.222,162.600 284.473 C 163.150 284.723,163.600 285.081,163.600 285.267 C 163.600 285.453,165.400 287.430,167.600 289.659 C 169.800 291.888,171.600 293.855,171.600 294.029 C 171.600 294.204,171.933 294.452,172.339 294.581 C 172.746 294.710,173.282 295.262,173.531 295.808 C 173.779 296.353,174.228 296.800,174.527 296.800 C 174.827 296.800,175.277 297.250,175.527 297.800 C 175.778 298.350,176.236 298.800,176.545 298.800 C 176.854 298.800,177.204 299.173,177.324 299.630 C 177.443 300.086,177.897 300.553,178.333 300.667 C 178.769 300.781,179.219 301.231,179.333 301.667 C 179.447 302.103,179.914 302.557,180.370 302.676 C 180.827 302.796,181.200 303.138,181.200 303.437 C 181.200 303.737,181.643 304.272,182.184 304.627 C 182.726 304.981,183.278 305.615,183.411 306.036 C 183.545 306.456,183.916 306.800,184.237 306.800 C 184.557 306.800,184.991 307.250,185.200 307.800 C 185.409 308.350,185.855 308.800,186.190 308.800 C 186.526 308.800,186.800 308.973,186.800 309.185 C 186.800 309.718,197.813 320.800,198.343 320.800 C 198.579 320.800,198.958 321.148,199.186 321.573 C 199.413 321.998,199.965 322.462,200.412 322.604 C 200.860 322.746,201.662 323.298,202.195 323.831 C 202.728 324.364,203.594 324.800,204.120 324.800 C 204.646 324.800,205.379 325.135,205.750 325.544 C 207.041 326.971,215.129 326.915,216.200 325.472 C 216.420 325.175,217.320 324.818,218.200 324.679 C 219.080 324.539,220.099 324.059,220.464 323.612 C 220.829 323.165,221.390 322.800,221.709 322.800 C 222.287 322.800,224.572 321.230,226.314 319.636 C 226.817 319.176,227.398 318.800,227.605 318.800 C 227.812 318.800,228.276 318.350,228.637 317.800 C 228.997 317.250,229.469 316.800,229.686 316.800 C 229.902 316.800,230.567 316.305,231.162 315.700 C 231.758 315.095,234.728 312.260,237.761 309.400 C 240.794 306.540,245.896 301.627,249.098 298.482 C 252.300 295.337,255.253 292.586,255.660 292.368 C 256.067 292.150,256.400 291.708,256.400 291.386 C 256.400 291.064,256.565 290.800,256.766 290.800 C 256.968 290.800,259.057 288.910,261.409 286.600 C 263.762 284.290,265.835 282.400,266.016 282.400 C 266.198 282.400,266.457 282.049,266.594 281.620 C 266.730 281.192,267.183 280.733,267.600 280.600 C 268.017 280.467,268.462 280.036,268.587 279.640 C 268.713 279.245,269.262 278.718,269.808 278.469 C 270.353 278.221,270.800 277.764,270.800 277.455 C 270.800 277.146,271.173 276.796,271.630 276.676 C 272.086 276.557,272.553 276.103,272.667 275.667 C 272.781 275.231,273.231 274.781,273.667 274.667 C 274.103 274.553,274.557 274.086,274.676 273.630 C 274.796 273.173,275.079 272.800,275.307 272.800 C 275.534 272.800,276.679 271.810,277.851 270.600 C 279.023 269.390,280.154 268.400,280.364 268.400 C 280.574 268.400,280.860 268.040,281.000 267.600 C 281.140 267.160,281.516 266.800,281.836 266.800 C 282.155 266.800,282.622 266.350,282.873 265.800 C 283.123 265.250,283.488 264.800,283.683 264.800 C 284.196 264.800,300.800 248.232,300.800 247.721 C 300.800 247.485,301.250 246.997,301.800 246.637 C 302.350 246.276,302.800 245.812,302.800 245.605 C 302.800 245.398,303.171 244.817,303.624 244.314 C 306.049 241.623,306.800 240.535,306.800 239.711 C 306.800 239.162,307.042 238.800,307.409 238.800 C 307.743 238.800,308.231 238.305,308.493 237.700 C 308.755 237.095,309.381 236.091,309.884 235.469 C 310.388 234.847,310.800 233.946,310.800 233.466 C 310.800 232.985,311.158 232.369,311.595 232.096 C 312.078 231.794,312.493 230.956,312.652 229.965 C 312.796 229.067,313.145 228.242,313.429 228.134 C 314.007 227.912,314.800 225.907,314.800 224.666 C 314.800 224.218,315.154 223.475,315.586 223.015 C 316.087 222.481,316.473 221.312,316.651 219.789 C 316.804 218.475,317.256 216.950,317.655 216.400 C 318.156 215.708,318.452 214.352,318.616 212.000 C 318.745 210.130,319.217 207.402,319.664 205.938 C 320.728 202.449,320.653 188.859,319.561 187.182 C 319.170 186.581,318.834 184.896,318.695 182.844 C 318.524 180.321,318.261 179.209,317.634 178.360 C 317.175 177.740,316.799 176.820,316.798 176.316 C 316.794 174.864,316.018 172.452,315.445 172.111 C 315.157 171.940,314.810 171.080,314.673 170.200 C 314.536 169.317,314.060 168.302,313.612 167.936 C 313.165 167.571,312.800 166.909,312.800 166.467 C 312.800 166.024,312.375 165.153,311.855 164.531 C 311.335 163.909,310.783 162.995,310.628 162.500 C 310.473 162.004,309.998 161.413,309.573 161.186 C 309.148 160.958,308.800 160.487,308.800 160.139 C 308.800 159.545,307.741 158.094,305.401 155.484 C 304.850 154.870,304.400 154.207,304.400 154.011 C 304.400 153.814,304.040 153.540,303.600 153.400 C 303.160 153.260,302.800 152.884,302.800 152.564 C 302.800 152.245,302.350 151.778,301.800 151.527 C 301.250 151.277,300.800 150.837,300.800 150.550 C 300.800 150.263,300.444 149.838,300.009 149.605 C 299.574 149.372,298.787 148.781,298.260 148.291 C 297.329 147.426,296.350 146.622,293.742 144.583 C 293.050 144.043,292.299 143.600,292.073 143.600 C 291.847 143.600,291.153 143.175,290.531 142.655 C 289.909 142.135,288.950 141.574,288.400 141.409 C 287.850 141.243,287.040 140.788,286.600 140.397 C 286.160 140.006,285.170 139.553,284.400 139.391 C 283.630 139.229,282.597 138.780,282.105 138.394 C 281.612 138.008,280.352 137.565,279.305 137.411 C 278.257 137.256,277.103 136.863,276.739 136.538 C 276.376 136.213,274.576 135.705,272.739 135.410 C 270.903 135.114,268.410 134.588,267.200 134.241 C 265.990 133.894,263.800 133.607,262.333 133.605 C 259.309 133.599,258.400 133.358,258.400 132.559 C 258.400 132.253,258.057 130.967,257.637 129.702 C 257.217 128.436,256.762 126.333,256.625 125.028 C 256.488 123.723,256.043 122.103,255.637 121.428 C 255.230 120.753,254.771 119.480,254.616 118.600 C 254.462 117.720,254.009 116.640,253.611 116.200 C 253.212 115.760,252.767 114.834,252.621 114.141 C 252.474 113.449,252.005 112.566,251.577 112.179 C 251.150 111.793,250.800 111.136,250.800 110.720 C 250.800 110.304,250.350 109.514,249.800 108.964 C 249.250 108.414,248.800 107.784,248.800 107.564 C 248.800 107.344,248.364 106.728,247.831 106.195 C 247.298 105.662,246.749 104.869,246.611 104.433 C 246.472 103.997,246.008 103.530,245.580 103.394 C 245.151 103.257,244.800 102.962,244.800 102.736 C 244.800 102.185,239.791 97.200,239.237 97.200 C 238.997 97.200,238.800 96.926,238.800 96.590 C 238.800 96.255,238.345 95.807,237.790 95.596 C 237.234 95.385,236.681 94.956,236.561 94.643 C 236.441 94.329,235.815 93.855,235.171 93.588 C 234.527 93.321,234.000 92.935,234.000 92.729 C 234.000 92.523,233.190 91.997,232.200 91.559 C 231.210 91.121,230.400 90.598,230.400 90.397 C 230.400 90.196,229.639 89.804,228.710 89.526 C 227.780 89.247,226.725 88.725,226.364 88.364 C 226.004 88.004,225.020 87.580,224.176 87.422 C 223.333 87.264,222.230 86.810,221.727 86.414 C 221.223 86.018,219.786 85.566,218.534 85.409 C 217.281 85.253,215.837 84.850,215.325 84.514 C 213.597 83.382,199.578 82.890,189.000 83.590 M211.400 84.377 C 220.263 86.270,228.801 89.634,233.000 92.887 C 233.220 93.058,234.480 93.992,235.800 94.963 C 241.094 98.857,248.046 106.687,250.393 111.400 C 250.831 112.280,251.360 113.270,251.568 113.600 C 252.443 114.989,254.400 119.517,254.400 120.151 C 254.400 120.530,254.683 121.388,255.030 122.057 C 255.376 122.727,256.016 125.373,256.452 127.938 C 257.437 133.741,257.585 133.912,262.023 134.378 C 266.756 134.876,274.798 136.380,275.996 136.991 C 276.548 137.273,277.630 137.636,278.400 137.797 C 285.774 139.343,298.934 148.339,304.910 155.918 C 305.839 157.097,307.005 158.543,307.500 159.131 C 307.994 159.719,308.399 160.403,308.400 160.651 C 308.400 160.899,308.683 161.337,309.029 161.624 C 309.375 161.911,310.008 162.789,310.436 163.573 C 310.863 164.358,311.816 166.096,312.554 167.435 C 313.291 168.774,314.126 170.574,314.408 171.435 C 314.690 172.296,315.154 173.360,315.438 173.800 C 315.723 174.240,316.152 175.500,316.392 176.600 C 316.631 177.700,317.081 179.146,317.391 179.812 C 319.975 185.373,319.878 206.305,317.227 215.200 C 316.801 216.630,316.333 218.430,316.187 219.200 C 316.041 219.970,315.698 220.960,315.424 221.400 C 315.150 221.840,314.798 222.740,314.640 223.400 C 314.221 225.151,310.579 232.992,309.158 235.200 C 308.063 236.901,307.026 238.481,306.400 239.400 C 306.070 239.884,305.446 240.803,305.013 241.440 C 301.872 246.068,297.085 251.069,279.012 268.600 C 273.342 274.100,267.411 279.860,265.831 281.400 C 264.252 282.940,259.114 287.890,254.414 292.400 C 249.714 296.910,244.847 301.590,243.597 302.800 C 236.214 309.950,231.050 314.844,229.036 316.600 C 227.775 317.700,226.531 318.789,226.271 319.019 C 225.746 319.486,222.159 321.825,219.998 323.110 C 215.993 325.492,208.870 326.695,207.085 325.292 C 206.818 325.082,206.060 324.782,205.400 324.625 C 202.088 323.836,181.313 303.728,157.644 278.400 C 156.924 277.630,154.235 274.839,151.668 272.198 C 149.100 269.557,143.639 263.887,139.530 259.598 C 135.422 255.309,130.202 249.890,127.930 247.555 C 116.150 235.448,102.730 221.613,101.395 220.200 C 100.564 219.320,97.525 216.165,94.642 213.189 C 82.802 200.968,81.233 199.269,77.403 194.527 C 75.992 192.781,74.000 186.868,74.000 184.428 C 74.000 181.782,75.641 177.697,78.269 173.800 C 78.566 173.360,79.267 172.311,79.828 171.470 C 81.263 169.317,118.543 132.620,127.846 124.203 C 128.091 123.981,132.411 119.820,137.446 114.955 C 151.057 101.804,155.107 98.297,160.516 94.976 C 161.570 94.329,163.036 93.413,163.775 92.940 C 164.513 92.467,165.541 91.951,166.059 91.793 C 166.576 91.635,167.270 91.272,167.600 90.986 C 168.976 89.795,178.132 86.597,184.200 85.189 C 189.260 84.014,207.196 83.479,211.400 84.377 M190.800 138.663 C 185.106 140.559,182.145 142.724,172.359 152.146 C 169.587 154.816,163.762 160.420,159.415 164.600 C 144.197 179.233,144.371 179.052,144.700 179.932 C 144.865 180.374,147.235 183.045,149.966 185.868 C 152.698 188.691,159.358 195.565,164.766 201.144 C 170.175 206.724,175.860 212.589,177.400 214.179 C 178.940 215.768,182.976 219.933,186.368 223.434 C 206.249 243.951,216.572 254.757,216.733 255.219 C 216.807 255.428,217.347 255.600,217.933 255.599 C 219.128 255.598,218.660 256.025,237.400 237.849 C 244.000 231.447,251.355 224.318,253.745 222.005 C 258.971 216.947,261.090 214.275,263.265 210.000 C 264.348 207.872,263.957 200.472,262.642 198.200 C 259.459 192.702,254.813 187.818,251.359 186.341 C 250.721 186.068,249.874 185.572,249.476 185.239 C 247.482 183.569,240.331 185.022,237.425 187.689 C 236.998 188.080,236.528 188.400,236.380 188.400 C 235.900 188.400,232.137 191.418,229.200 194.157 C 227.648 195.605,222.188 200.246,221.000 201.127 C 219.240 202.433,216.712 203.972,215.938 204.209 C 215.422 204.366,214.220 204.845,213.267 205.273 C 210.874 206.346,207.001 206.324,204.951 205.225 C 204.105 204.771,203.229 204.400,203.005 204.400 C 201.643 204.400,194.628 198.147,191.987 194.579 C 184.875 184.970,186.487 178.699,199.588 165.000 C 207.768 156.446,209.071 151.605,204.569 146.486 C 198.693 139.805,194.509 137.428,190.800 138.663 M195.379 139.577 C 195.766 140.005,196.641 140.477,197.323 140.627 C 198.005 140.777,198.899 141.327,199.311 141.850 C 199.722 142.372,200.295 142.800,200.586 142.800 C 200.876 142.800,201.226 143.250,201.364 143.800 C 201.502 144.350,201.837 144.801,202.108 144.803 C 202.378 144.805,203.010 145.525,203.512 146.403 C 204.014 147.281,204.582 148.000,204.775 148.000 C 206.756 148.000,206.346 155.922,204.235 158.431 C 203.666 159.108,203.200 159.897,203.200 160.185 C 203.200 160.473,202.750 161.003,202.200 161.363 C 201.650 161.724,201.200 162.284,201.200 162.609 C 201.200 162.934,200.926 163.200,200.591 163.200 C 200.257 163.200,199.779 163.647,199.531 164.192 C 199.282 164.738,198.755 165.287,198.360 165.413 C 197.964 165.538,197.533 165.983,197.400 166.400 C 197.267 166.817,196.808 167.270,196.380 167.406 C 195.951 167.543,195.600 167.816,195.600 168.013 C 195.600 168.211,195.105 168.903,194.500 169.552 C 192.046 172.182,189.600 175.419,189.600 176.036 C 189.600 176.323,189.115 177.256,188.523 178.111 C 187.053 180.232,186.883 188.034,188.267 189.905 C 188.718 190.516,189.210 191.401,189.360 191.873 C 189.893 193.553,196.168 200.786,197.100 200.795 C 197.375 200.798,197.600 201.074,197.600 201.409 C 197.600 201.743,198.086 202.238,198.681 202.509 C 199.276 202.779,200.167 203.405,200.663 203.900 C 201.158 204.395,202.003 204.800,202.539 204.800 C 203.075 204.800,203.614 205.059,203.735 205.375 C 204.413 207.143,213.306 207.232,214.589 205.484 C 214.815 205.177,215.679 204.798,216.509 204.643 C 217.339 204.487,218.237 204.009,218.505 203.580 C 218.773 203.151,219.239 202.800,219.541 202.800 C 220.125 202.800,222.126 201.316,223.991 199.500 C 224.613 198.895,225.249 198.400,225.405 198.400 C 225.561 198.400,226.483 197.594,227.454 196.609 C 228.425 195.623,229.576 194.627,230.010 194.395 C 230.445 194.162,230.800 193.708,230.800 193.386 C 230.800 193.064,231.071 192.800,231.403 192.800 C 231.734 192.800,232.397 192.350,232.875 191.800 C 233.353 191.250,233.916 190.800,234.126 190.800 C 234.336 190.800,234.889 190.395,235.354 189.900 C 235.819 189.405,236.700 188.777,237.311 188.503 C 237.922 188.230,238.527 187.735,238.654 187.403 C 238.781 187.072,239.286 186.800,239.775 186.800 C 240.264 186.800,241.550 186.351,242.632 185.802 C 244.812 184.696,246.860 184.508,247.559 185.350 C 247.810 185.653,248.809 186.123,249.779 186.394 C 250.749 186.666,251.947 187.318,252.441 187.844 C 252.935 188.370,253.574 188.800,253.861 188.800 C 254.147 188.800,254.676 189.250,255.037 189.800 C 255.397 190.350,255.945 190.800,256.255 190.800 C 256.564 190.800,257.022 191.250,257.273 191.800 C 257.523 192.350,257.854 192.800,258.007 192.800 C 258.477 192.800,261.600 197.194,261.600 197.855 C 261.600 198.197,262.003 199.043,262.496 199.734 C 263.692 201.415,263.835 208.235,262.701 209.489 C 262.321 209.909,261.800 210.870,261.544 211.626 C 261.288 212.382,260.844 213.270,260.556 213.600 C 260.269 213.930,259.351 215.005,258.517 215.988 C 257.683 216.971,254.682 220.031,251.849 222.788 C 249.015 225.545,244.008 230.455,240.722 233.700 C 237.436 236.945,234.681 239.600,234.600 239.600 C 234.519 239.600,231.723 242.300,228.387 245.600 C 225.050 248.900,222.170 251.600,221.987 251.600 C 221.804 251.600,221.543 251.951,221.406 252.380 C 221.270 252.808,220.817 253.267,220.400 253.400 C 219.983 253.533,219.527 253.999,219.388 254.437 C 218.990 255.692,217.712 255.013,214.879 252.043 C 206.426 243.179,199.586 236.072,195.300 231.701 C 192.605 228.953,190.400 226.558,190.400 226.379 C 190.400 226.200,190.067 225.948,189.661 225.819 C 189.254 225.690,188.718 225.138,188.469 224.592 C 188.221 224.047,187.772 223.600,187.473 223.600 C 187.173 223.600,186.723 223.150,186.473 222.600 C 186.222 222.050,185.743 221.600,185.409 221.600 C 185.074 221.600,184.800 221.417,184.800 221.194 C 184.800 220.971,183.360 219.343,181.600 217.576 C 179.840 215.809,178.400 214.203,178.400 214.008 C 178.400 213.813,178.049 213.543,177.620 213.406 C 177.192 213.270,176.733 212.817,176.600 212.400 C 176.467 211.983,176.017 211.533,175.600 211.400 C 175.183 211.267,174.733 210.817,174.600 210.400 C 174.467 209.983,174.028 209.536,173.623 209.407 C 173.218 209.279,172.790 208.806,172.673 208.357 C 172.555 207.908,172.103 207.447,171.667 207.333 C 171.231 207.219,170.781 206.769,170.667 206.333 C 170.553 205.897,170.103 205.447,169.667 205.333 C 169.231 205.219,168.781 204.769,168.667 204.333 C 168.553 203.897,168.086 203.443,167.630 203.324 C 167.173 203.204,166.800 202.862,166.800 202.563 C 166.800 202.263,166.350 201.724,165.800 201.363 C 165.250 201.003,164.800 200.455,164.800 200.145 C 164.800 199.836,164.350 199.378,163.800 199.127 C 163.250 198.877,162.800 198.527,162.800 198.350 C 162.800 198.173,160.955 196.149,158.700 193.852 C 153.465 188.520,146.688 181.308,145.631 179.945 L 144.813 178.890 145.636 178.675 C 146.089 178.556,146.553 178.101,146.667 177.664 C 146.782 177.226,147.309 176.759,147.838 176.626 C 148.449 176.473,148.800 176.096,148.800 175.592 C 148.800 175.063,149.069 174.800,149.610 174.800 C 150.106 174.800,150.567 174.412,150.800 173.800 C 151.009 173.250,151.363 172.800,151.586 172.800 C 151.809 172.800,153.408 171.405,155.139 169.700 C 156.871 167.995,160.757 164.260,163.776 161.400 C 168.265 157.146,176.264 149.496,180.200 145.692 C 180.640 145.267,181.405 144.706,181.900 144.446 C 182.395 144.185,182.800 143.731,182.800 143.436 C 182.800 143.141,183.326 142.795,183.969 142.666 C 184.613 142.537,185.468 142.081,185.869 141.651 C 186.271 141.222,187.281 140.743,188.114 140.588 C 188.947 140.433,190.027 139.973,190.514 139.566 C 191.735 138.547,194.453 138.554,195.379 139.577 " stroke="none" fill="#9567fc" fill-rule="evenodd"></path></g></svg>